<svg width="512" height="512" viewBox="0 0 512 512" fill="none" xmlns="http://www.w3.org/2000/svg">
  <!-- Background gradient -->
  <defs>
    <linearGradient id="grad1" x1="0%" y1="0%" x2="100%" y2="100%">
      <stop offset="0%" style="stop-color:#10b981;stop-opacity:1" />
      <stop offset="100%" style="stop-color:#06b6d4;stop-opacity:1" />
    </linearGradient>
  </defs>
  
  <!-- Background -->
  <rect width="512" height="512" rx="115" fill="url(#grad1)"/>
  
  <!-- Flame icon -->
  <path d="M256 96C256 96 192 160 192 224C192 259.346 220.654 288 256 288C291.346 288 320 259.346 320 224C320 160 256 96 256 96Z" fill="white" opacity="0.9"/>
  <path d="M256 160C256 160 224 192 224 224C224 241.673 238.327 256 256 256C273.673 256 288 241.673 288 224C288 192 256 160 256 160Z" fill="#fbbf24"/>
  
  <!-- Dumbbell icon -->
  <g transform="translate(128, 320)">
    <rect x="0" y="20" width="24" height="24" rx="4" fill="white"/>
    <rect x="232" y="20" width="24" height="24" rx="4" fill="white"/>
    <rect x="24" y="28" width="208" height="8" rx="4" fill="white"/>
    <circle cx="80" cy="32" r="16" fill="white"/>
    <circle cx="176" cy="32" r="16" fill="white"/>
  </g>
  
  <!-- Text -->
  <text x="256" y="440" font-family="Arial, sans-serif" font-size="72" font-weight="bold" fill="white" text-anchor="middle">FitFusion</text>
</svg>
